<svg width="240" height="351" viewBox="0 0 240 351" fill="none" xmlns="http://www.w3.org/2000/svg">
<g clip-path="url(#clip0_6_2)">
<path fill-rule="evenodd" clip-rule="evenodd" d="M136.865 224.432C126.312 224.432 116.577 227.933 108.756 233.835L108.731 233.806C101.23 238.942 92.1548 241.946 82.3783 241.946C56.5851 241.946 35.6756 221.036 35.6756 195.243C35.6756 179.571 43.3949 165.703 55.2387 157.231C71.2605 149.83 82.3783 133.618 82.3783 114.811C82.3783 94.9116 69.9327 77.919 52.4007 71.1925C52.4057 71.1185 52.4107 71.0446 52.4158 70.9713C32.6662 65.5226 18.1621 47.4281 18.1621 25.946C18.1621 0.152773 39.0716 -20.7567 64.8648 -20.7567C69.6194 -20.7567 74.2086 -20.0462 78.5305 -18.7255C115.797 -87.1719 188.366 -133.622 271.784 -133.622C393.227 -133.622 491.676 -35.1726 491.676 86.2703C491.676 207.714 393.227 306.162 271.784 306.162C271.544 306.162 271.304 306.162 271.064 306.161C269.718 330.748 249.355 350.27 224.432 350.27C198.64 350.27 177.73 329.361 177.73 303.568C177.73 298.4 178.569 293.428 180.119 288.781C182.342 283.337 183.568 277.379 183.568 271.135C183.568 245.342 162.658 224.432 136.865 224.432Z" fill="#F3C25F"/>
<path d="M136.865 235.459C117.162 235.459 101.189 251.432 101.189 271.135C101.189 290.838 117.162 306.811 136.865 306.811C156.568 306.811 172.541 290.838 172.541 271.135C172.541 251.432 156.568 235.459 136.865 235.459Z" fill="#C73F43"/>
<path d="M35.6756 79.1351C15.9725 79.1351 -3.8147e-05 95.1076 -3.8147e-05 114.811C-3.8147e-05 134.514 15.9725 150.486 35.6756 150.486C55.3788 150.486 71.3513 134.514 71.3513 114.811C71.3513 95.1076 55.3788 79.1351 35.6756 79.1351Z" fill="#C73F43"/>
</g>
<defs>
<clipPath id="clip0_6_2">
<rect width="240" height="350.27" fill="white"/>
</clipPath>
</defs>
</svg>
