<svg width="148" height="215" viewBox="0 0 148 215" fill="none" xmlns="http://www.w3.org/2000/svg">
<g clip-path="url(#clip0_6_6)">
<path fill-rule="evenodd" clip-rule="evenodd" d="M63.4409 76.922C69.8917 76.922 75.8424 74.7825 80.6231 71.1747L80.6385 71.1921C85.2237 68.0526 90.7712 66.2164 96.7474 66.2164C112.514 66.2164 125.296 78.9981 125.296 94.7648C125.296 104.809 120.108 113.642 112.266 118.731C111.55 119.113 110.852 119.525 110.173 119.965C109.808 120.161 109.438 120.348 109.063 120.527C109.08 120.58 109.097 120.634 109.114 120.687C101.867 125.865 97.1439 134.346 97.1439 143.931C97.1439 155.949 104.569 166.232 115.082 170.443C115.076 170.539 115.069 170.634 115.063 170.73C127.136 174.06 136.001 185.121 136.001 198.253C136.001 214.02 123.22 226.801 107.453 226.801C104.547 226.801 101.741 226.367 99.0994 225.56C76.3194 267.399 31.9595 295.793 -19.0322 295.793C-93.2679 295.793 -153.448 235.613 -153.448 161.378C-153.448 87.142 -93.2679 26.9624 -19.0322 26.9624C-18.8856 26.9624 -18.7389 26.9626 -18.5924 26.9631C-17.7698 11.9336 -5.32219 0 9.9127 0C25.6795 0 38.4611 12.7815 38.4611 28.5484C38.4611 31.7074 37.948 34.7466 37.0006 37.5871C35.6415 40.915 34.8925 44.5569 34.8925 48.3737C34.8925 64.1403 47.6743 76.922 63.4409 76.922Z" fill="#C73F43"/>
<path d="M63.4409 70.1815C75.485 70.1815 85.2486 60.4178 85.2486 48.3737C85.2486 36.3296 75.485 26.5659 63.4409 26.5659C51.3967 26.5659 41.6331 36.3296 41.6331 48.3737C41.6331 60.4178 51.3967 70.1815 63.4409 70.1815Z" fill="#F3C25F"/>
<path d="M125.692 165.739C137.736 165.739 147.5 155.976 147.5 143.931C147.5 131.887 137.736 122.124 125.692 122.124C113.648 122.124 103.885 131.887 103.885 143.931C103.885 155.976 113.648 165.739 125.692 165.739Z" fill="#F3C25F"/>
</g>
<defs>
<clipPath id="clip0_6_6">
<rect width="147.5" height="214.113" fill="white"/>
</clipPath>
</defs>
</svg>
