<svg width="372" height="540" viewBox="0 0 372 540" fill="none" xmlns="http://www.w3.org/2000/svg">
<path fill-rule="evenodd" clip-rule="evenodd" d="M160 194C176.269 194 191.277 188.604 203.334 179.505L203.373 179.549C214.937 171.631 228.928 167 244 167C283.765 167 316 199.236 316 239C316 264.333 302.917 286.61 283.139 299.443C281.332 300.408 279.572 301.447 277.861 302.557C276.939 303.049 276.006 303.521 275.061 303.974C275.104 304.108 275.147 304.243 275.189 304.377C256.913 317.435 245 338.826 245 363C245 393.308 263.727 419.243 290.241 429.863C290.225 430.104 290.209 430.345 290.192 430.586C320.64 438.986 343 466.882 343 500C343 539.765 310.765 572 271 572C263.67 572 256.595 570.905 249.932 568.869C192.48 674.39 80.6028 746 -48 746C-235.225 746 -387 594.225 -387 407C-387 219.775 -235.225 68 -48 68C-47.6302 68 -47.2604 68.0006 -46.8909 68.0018C-44.8162 30.097 -13.4229 0 25 0C64.7645 0 97 32.2355 97 72C97 79.9671 95.706 87.632 93.3166 94.7959C89.889 103.189 88 112.374 88 122C88 161.764 120.236 194 160 194Z" fill="#C73F43"/>
<circle cx="160" cy="122" r="55" fill="#F3C25F"/>
<circle cx="317" cy="363" r="55" fill="#F3C25F"/>
</svg>
