<svg width="148" height="216" viewBox="0 0 148 216" fill="none" xmlns="http://www.w3.org/2000/svg">
<g clip-path="url(#clip0_6_2)">
<path fill-rule="evenodd" clip-rule="evenodd" d="M84.1148 137.932C77.6292 137.932 71.6463 140.084 66.8398 143.711L66.8242 143.693C62.2143 146.85 56.6368 148.696 50.6283 148.696C34.7763 148.696 21.9256 135.845 21.9256 119.993C21.9256 110.362 26.6698 101.838 33.9488 96.6317C43.7955 92.0831 50.6283 82.1197 50.6283 70.5608C50.6283 58.3311 42.9795 47.8877 32.2046 43.7537C32.2076 43.7083 32.2107 43.6628 32.2138 43.6178C20.0761 40.2691 11.1621 29.1485 11.1621 15.946C11.1621 0.0939049 24.0127 -12.7567 39.8648 -12.7567C42.7869 -12.7567 45.6073 -12.32 48.2635 -11.5084C71.1667 -53.5744 115.766 -82.1216 167.034 -82.1216C241.671 -82.1216 302.176 -21.6165 302.176 53.0203C302.176 127.657 241.671 188.162 167.034 188.162C166.886 188.162 166.739 188.162 166.592 188.161C165.764 203.272 153.25 215.27 137.932 215.27C122.081 215.27 109.23 202.42 109.23 186.568C109.23 183.392 109.746 180.336 110.698 177.48C112.064 174.134 112.818 170.473 112.818 166.635C112.818 150.783 99.9667 137.932 84.1148 137.932Z" fill="#F3C25F"/>
<path d="M84.1149 144.709C72.0056 144.709 62.1892 154.526 62.1892 166.635C62.1892 178.744 72.0056 188.561 84.1149 188.561C96.2241 188.561 106.041 178.744 106.041 166.635C106.041 154.526 96.2241 144.709 84.1149 144.709Z" fill="#C73F43"/>
<path d="M21.9256 48.6351C9.81643 48.6351 -3.43323e-05 58.4516 -3.43323e-05 70.5608C-3.43323e-05 82.67 9.81643 92.4865 21.9256 92.4865C34.0349 92.4865 43.8513 82.67 43.8513 70.5608C43.8513 58.4516 34.0349 48.6351 21.9256 48.6351Z" fill="#C73F43"/>
</g>
<defs>
<clipPath id="clip0_6_2">
<rect width="147.5" height="215.27" fill="white"/>
</clipPath>
</defs>
</svg>
