<svg width="370" height="540" viewBox="0 0 370 540" fill="none" xmlns="http://www.w3.org/2000/svg">
<path fill-rule="evenodd" clip-rule="evenodd" d="M211 346C194.731 346 179.723 351.396 167.666 360.495L167.627 360.451C156.063 368.369 142.072 373 127 373C87.2355 373 55 340.764 55 301C55 276.839 66.9006 255.458 85.1598 242.398C109.86 230.988 127 205.995 127 177C127 146.322 107.813 120.125 80.7845 109.755C80.7922 109.641 80.7999 109.527 80.8077 109.414C50.3604 101.014 28 73.1183 28 40C28 0.235474 60.2355 -32 100 -32C107.33 -32 114.405 -30.9046 121.068 -28.8685C178.52 -134.39 290.397 -206 419 -206C606.225 -206 758 -54.2245 758 133C758 320.225 606.225 472 419 472C418.63 472 418.26 471.999 417.891 471.998C415.816 509.903 384.423 540 346 540C306.236 540 274 507.765 274 468C274 460.033 275.294 452.368 277.683 445.204C281.111 436.811 283 427.626 283 418C283 378.236 250.764 346 211 346Z" fill="#F3C25F"/>
<circle cx="211" cy="418" r="55" transform="rotate(180 211 418)" fill="#C73F43"/>
<circle cx="55" cy="177" r="55" transform="rotate(180 55 177)" fill="#C73F43"/>
</svg>
