<svg width="240" height="349" viewBox="0 0 240 349" fill="none" xmlns="http://www.w3.org/2000/svg">
<g clip-path="url(#clip0_6_6)">
<path fill-rule="evenodd" clip-rule="evenodd" d="M103.226 125.161C113.722 125.161 123.404 121.68 131.183 115.81L131.208 115.838C138.669 110.73 147.695 107.742 157.419 107.742C183.074 107.742 203.871 128.539 203.871 154.194C203.871 170.537 195.43 184.91 182.67 193.189C181.504 193.812 180.369 194.482 179.265 195.198C178.67 195.515 178.068 195.82 177.459 196.112C177.486 196.199 177.514 196.286 177.541 196.372C165.75 204.797 158.064 218.597 158.064 234.194C158.064 253.747 170.146 270.479 187.252 277.331C187.242 277.486 187.232 277.642 187.221 277.797C206.864 283.217 221.29 301.214 221.29 322.581C221.29 348.235 200.493 369.032 174.839 369.032C170.11 369.032 165.545 368.326 161.246 367.012C124.181 435.09 52.0017 481.29 -30.9678 481.29C-151.758 481.29 -249.677 383.371 -249.677 262.581C-249.677 141.79 -151.758 43.871 -30.9678 43.871C-30.7292 43.871 -30.4907 43.8713 -30.2523 43.8721C-28.9138 19.4174 -8.66001 0 16.129 0C41.7835 0 62.5806 20.7971 62.5806 46.4516C62.5806 51.5917 61.7457 56.5368 60.2042 61.1586C57.9928 66.5735 56.7741 72.4993 56.7741 78.7097C56.7741 104.364 77.5715 125.161 103.226 125.161Z" fill="#C73F43"/>
<path d="M103.226 114.194C122.823 114.194 138.71 98.3069 138.71 78.7097C138.71 59.1125 122.823 43.2258 103.226 43.2258C83.6286 43.2258 67.7419 59.1125 67.7419 78.7097C67.7419 98.3069 83.6286 114.194 103.226 114.194Z" fill="#F3C25F"/>
<path d="M204.516 269.677C224.113 269.677 240 253.791 240 234.194C240 214.596 224.113 198.71 204.516 198.71C184.919 198.71 169.032 214.596 169.032 234.194C169.032 253.791 184.919 269.677 204.516 269.677Z" fill="#F3C25F"/>
</g>
<defs>
<clipPath id="clip0_6_6">
<rect width="240" height="348.387" fill="white"/>
</clipPath>
</defs>
</svg>
