<svg width="150" height="43" viewBox="0 0 150 43" fill="none" xmlns="http://www.w3.org/2000/svg">
<path d="M10.852 35.7852C9.67677 35.7852 8.77996 35.4503 8.16153 34.7804C7.5431 34.1106 7.23389 33.165 7.23389 31.9435V23.5484C7.23389 22.3287 7.5431 21.3831 8.16153 20.7115C8.77996 20.0417 9.67677 19.7068 10.852 19.7068C12.0289 19.7068 12.9257 20.0417 13.5424 20.7115C14.1608 21.3831 14.47 22.3287 14.47 23.5484V25.2007H12.1471V23.3917C12.1471 22.4238 11.7376 21.9398 10.9188 21.9398C10.0999 21.9398 9.69048 22.4238 9.69048 23.3917V32.1234C9.69048 33.0759 10.0999 33.5521 10.9188 33.5521C11.7376 33.5521 12.1471 33.0759 12.1471 32.1234V29.7336H14.47V31.9435C14.47 33.165 14.1608 34.1106 13.5424 34.7804C12.9257 35.4503 12.0289 35.7852 10.852 35.7852ZM15.9425 35.5616V19.9303H19.5606C20.782 19.9303 21.6977 20.2584 22.3075 20.9145C22.9174 21.5689 23.2223 22.5291 23.2223 23.7951V25.3343C23.2223 26.6003 22.9174 27.5605 22.3075 28.2149C21.6977 28.8711 20.782 29.1991 19.5606 29.1991H18.3991V35.5616H15.9425ZM18.3991 26.9661H19.5606C19.9631 26.9661 20.2646 26.8539 20.4651 26.6295C20.6655 26.4068 20.7657 26.0273 20.7657 25.4911V23.6384C20.7657 23.1022 20.6655 22.7227 20.4651 22.5C20.2646 22.2756 19.9631 22.1634 19.5606 22.1634H18.3991V26.9661ZM23.9161 35.5616L26.4601 19.9303H29.7878L32.3343 35.5616H29.8778L29.4306 32.4575V32.5037H26.64L26.1928 35.5616H23.9161ZM26.9303 30.3812H29.1403L28.0456 22.6542H28.0019L26.9303 30.3812ZM37.0908 35.5616V19.9303H40.7063C41.9278 19.9303 42.8434 20.2584 43.4533 20.9145C44.0631 21.5689 44.3681 22.5291 44.3681 23.7951V25.3343C44.3681 26.6003 44.0631 27.5605 43.4533 28.2149C42.8434 28.8711 41.9278 29.1991 40.7063 29.1991H39.5448V35.5616H37.0908ZM39.5448 26.9661H40.7063C41.1089 26.9661 41.4104 26.8539 41.6108 26.6295C41.813 26.4068 41.914 26.0273 41.914 25.4911V23.6384C41.914 23.1022 41.813 22.7227 41.6108 22.5C41.4104 22.2756 41.1089 22.1634 40.7063 22.1634H39.5448V26.9661ZM45.7094 35.5616V19.9303H49.3481C50.6141 19.9303 51.5374 20.225 52.1182 20.8143C52.6989 21.4019 52.9893 22.3056 52.9893 23.5253V24.4864C52.9893 26.1087 52.4531 27.1357 51.3807 27.5674V27.6136C51.9768 27.7918 52.3974 28.1558 52.6424 28.7057C52.8874 29.2574 53.0098 29.9949 53.0098 30.9182V33.6652C53.0098 34.1106 53.0253 34.4712 53.0561 34.747C53.0852 35.0228 53.1598 35.2944 53.2797 35.5616H50.7768C50.6877 35.3081 50.6286 35.0699 50.5995 34.8472C50.5704 34.6245 50.5558 34.2228 50.5558 33.6421V30.7846C50.5558 30.0685 50.4402 29.5692 50.2089 29.2865C49.9777 29.0038 49.5793 28.8625 49.014 28.8625H48.166V35.5616H45.7094ZM48.166 26.6295H49.0577C49.5494 26.6295 49.9177 26.5035 50.1627 26.2517C50.4094 25.9982 50.5327 25.5733 50.5327 24.9772V23.772C50.5327 23.2067 50.4325 22.7972 50.232 22.5437C50.0299 22.2902 49.713 22.1634 49.2813 22.1634H48.166V26.6295ZM54.7058 35.5616V19.9303H61.4049V22.1634H57.1624V26.2954H60.5338V28.5284H57.1624V33.3286H61.4049V35.5616H54.7058ZM62.8131 35.5616V19.9303H66.5648C67.7863 19.9303 68.7019 20.2584 69.3118 20.9145C69.9217 21.5689 70.2266 22.5291 70.2266 23.7951V31.6994C70.2266 32.9637 69.9217 33.9239 69.3118 34.58C68.7019 35.2344 67.7863 35.5616 66.5648 35.5616H62.8131ZM65.2697 33.3286H66.5211C66.922 33.3286 67.2304 33.2095 67.4462 32.9714C67.6621 32.7333 67.77 32.3461 67.77 31.8099V23.6821C67.77 23.1459 67.6621 22.7587 67.4462 22.5206C67.2304 22.2824 66.922 22.1634 66.5211 22.1634H65.2697V33.3286ZM71.8789 35.5616V19.9303H74.3355V35.5616H71.8789ZM79.6264 35.7852C78.4495 35.7852 77.5518 35.4503 76.9334 34.7804C76.3167 34.1106 76.0083 33.165 76.0083 31.9435V23.5484C76.0083 22.3287 76.3167 21.3831 76.9334 20.7115C77.5518 20.0417 78.4495 19.7068 79.6264 19.7068C80.8016 19.7068 81.6984 20.0417 82.3168 20.7115C82.9336 21.3831 83.2419 22.3287 83.2419 23.5484V25.2007H80.9215V23.3917C80.9215 22.4238 80.5121 21.9398 79.6932 21.9398C78.8744 21.9398 78.4649 22.4238 78.4649 23.3917V32.1234C78.4649 33.0759 78.8744 33.5521 79.6932 33.5521C80.5121 33.5521 80.9215 33.0759 80.9215 32.1234V29.7336H83.2419V31.9435C83.2419 33.165 82.9336 34.1106 82.3168 34.7804C81.6984 35.4503 80.8016 35.7852 79.6264 35.7852ZM86.639 35.5616V22.1634H84.0719V19.9303H91.6627V22.1634H89.0956V35.5616H86.639ZM92.8473 35.5616V19.9303H95.3039V35.5616H92.8473ZM100.685 35.7852C99.4788 35.7852 98.5554 35.4425 97.9147 34.7573C97.2757 34.0738 96.9562 33.1067 96.9562 31.8562V23.6384C96.9562 22.3878 97.2757 21.4199 97.9147 20.7347C98.5554 20.0494 99.4788 19.7068 100.685 19.7068C101.891 19.7068 102.814 20.0494 103.455 20.7347C104.094 21.4199 104.413 22.3878 104.413 23.6384V31.8562C104.413 33.1067 104.094 34.0738 103.455 34.7573C102.814 35.4425 101.891 35.7852 100.685 35.7852ZM100.685 33.5521C101.533 33.5521 101.957 33.0382 101.957 32.0103V23.4816C101.957 22.4538 101.533 21.9398 100.685 21.9398C99.8368 21.9398 99.4128 22.4538 99.4128 23.4816V32.0103C99.4128 33.0382 99.8368 33.5521 100.685 33.5521ZM106.066 35.5616V19.9303H109.147L111.536 29.2865H111.583V19.9303H113.77V35.5616H111.246L108.299 24.1523H108.255V35.5616H106.066ZM118.526 35.5616L121.073 19.9303H124.4L126.944 35.5616H124.488L124.04 32.4575V32.5037H121.25L120.803 35.5616H118.526ZM121.54 30.3812H123.75L122.658 22.6542H122.612L121.54 30.3812ZM128.126 35.5616V19.9303H131.742C132.963 19.9303 133.879 20.2584 134.489 20.9145C135.1 21.5689 135.406 22.5291 135.406 23.7951V25.3343C135.406 26.6003 135.1 27.5605 134.489 28.2149C133.879 28.8711 132.963 29.1991 131.742 29.1991H130.583V35.5616H128.126ZM130.583 26.9661H131.742C132.144 26.9661 132.446 26.8539 132.646 26.6295C132.848 26.4068 132.949 26.0273 132.949 25.4911V23.6384C132.949 23.1022 132.848 22.7227 132.646 22.5C132.446 22.2756 132.144 22.1634 131.742 22.1634H130.583V26.9661ZM136.747 35.5616V19.9303H140.366C141.585 19.9303 142.501 20.2584 143.113 20.9145C143.722 21.5689 144.027 22.5291 144.027 23.7951V25.3343C144.027 26.6003 143.722 27.5605 143.113 28.2149C142.501 28.8711 141.585 29.1991 140.366 29.1991H139.204V35.5616H136.747ZM139.204 26.9661H140.366C140.766 26.9661 141.068 26.8539 141.27 26.6295C141.47 26.4068 141.571 26.0273 141.571 25.4911V23.6384C141.571 23.1022 141.47 22.7227 141.27 22.5C141.068 22.2756 140.766 22.1634 140.366 22.1634H139.204V26.9661Z" fill="#1E1E1E"/>
<path d="M4.88232 7.19238H64.8823Z" fill="black"/>
<path d="M4.88232 7.19238H64.8823" stroke="white" stroke-width="4" stroke-linecap="round"/>
<path d="M82.6802 7.12793H143.959Z" fill="black"/>
<path d="M82.6802 7.12793H143.959" stroke="white" stroke-width="4" stroke-linecap="round"/>
<path d="M80.8385 11.2992L80.8382 11.2989L77.0639 7.54312L77.0639 7.5431L77.0621 7.54135C76.9696 7.45229 76.8461 7.40252 76.7176 7.40252C76.5946 7.40252 76.4761 7.44815 76.385 7.53025L76.2268 7.37208C76.725 6.6138 76.955 5.70904 76.8778 4.80263C76.797 3.85416 76.3849 2.96439 75.7139 2.28925L75.7136 2.28893C74.1376 0.712972 71.5822 0.712959 70.0065 2.28894C68.4308 3.86488 68.4305 6.4203 70.0065 7.99603C70.7946 8.78418 71.814 9.16856 72.8508 9.16856C73.6177 9.16856 74.402 8.94319 75.0722 8.49188L75.2493 8.66891C75.1779 8.75705 75.1386 8.86734 75.1386 8.98156C75.1386 9.11 75.1883 9.23348 75.2774 9.32608L75.2774 9.32609L75.2792 9.32788L79.035 13.1022L79.0353 13.1025C79.0928 13.16 79.2029 13.2389 79.3818 13.2389H79.3836C79.4014 13.2389 79.4309 13.2389 79.4615 13.2358C79.4875 13.2333 79.5241 13.2277 79.5611 13.2125C79.6934 13.1767 79.8341 13.1003 79.9685 13.0068C80.1094 12.9088 80.2521 12.7858 80.3834 12.6533C80.6406 12.3938 80.875 12.0759 80.9505 11.8173L80.9505 11.8173L80.9512 11.8148C80.9855 11.6889 80.9823 11.5811 80.9544 11.4906C80.9268 11.401 80.8783 11.339 80.8385 11.2992ZM74.7429 7.00683L74.7429 7.00682L74.7411 7.00864C74.2362 7.53096 73.5553 7.77697 72.8693 7.77697C72.1856 7.77697 71.5028 7.51394 70.9957 7.00683C69.9627 5.97382 69.9627 4.29264 70.9957 3.25963C72.0287 2.22661 73.7099 2.22661 74.7429 3.25963C75.7759 4.29264 75.7759 5.97382 74.7429 7.00683Z" fill="white" stroke="white" stroke-width="0.3"/>
</svg>
