<svg width="150" height="12" viewBox="0 0 150 12" fill="none" xmlns="http://www.w3.org/2000/svg">
<path d="M56.9423 9.79205C56.6115 9.79205 56.359 9.69778 56.185 9.50922C56.0109 9.32067 55.9238 9.05447 55.9238 8.71063V6.34741C55.9238 6.00406 56.0109 5.73786 56.185 5.54883C56.359 5.36027 56.6115 5.26599 56.9423 5.26599C57.2736 5.26599 57.5261 5.36027 57.6997 5.54883C57.8738 5.73786 57.9608 6.00406 57.9608 6.34741V6.81254H57.3069V6.30329C57.3069 6.03082 57.1916 5.89459 56.9611 5.89459C56.7306 5.89459 56.6154 6.03082 56.6154 6.30329V8.76127C56.6154 9.02939 56.7306 9.16346 56.9611 9.16346C57.1916 9.16346 57.3069 9.02939 57.3069 8.76127V8.08854H57.9608V8.71063C57.9608 9.05447 57.8738 9.32067 57.6997 9.50922C57.5261 9.69778 57.2736 9.79205 56.9423 9.79205ZM58.3753 9.72912V5.32892H59.3938C59.7376 5.32892 59.9954 5.42127 60.1671 5.60597C60.3387 5.79019 60.4246 6.06048 60.4246 6.41686V6.85015C60.4246 7.20653 60.3387 7.47682 60.1671 7.66104C59.9954 7.84573 59.7376 7.93808 59.3938 7.93808H59.0668V9.72912H58.3753ZM59.0668 7.30948H59.3938C59.5071 7.30948 59.592 7.2779 59.6484 7.21472C59.7048 7.15203 59.733 7.04522 59.733 6.89427V6.37273C59.733 6.22179 59.7048 6.11497 59.6484 6.05228C59.592 5.98911 59.5071 5.95752 59.3938 5.95752H59.0668V7.30948ZM60.6199 9.72912L61.336 5.32892H62.2728L62.9896 9.72912H62.2981L62.1722 8.8553V8.86832H61.3866L61.2608 9.72912H60.6199ZM61.4684 8.27083H62.0905L61.7823 6.09569H61.77L61.4684 8.27083ZM64.3285 9.72912V5.32892H65.3463C65.6902 5.32892 65.9479 5.42127 66.1196 5.60597C66.2913 5.79019 66.3771 6.06048 66.3771 6.41686V6.85015C66.3771 7.20653 66.2913 7.47682 66.1196 7.66104C65.9479 7.84573 65.6902 7.93808 65.3463 7.93808H65.0194V9.72912H64.3285ZM65.0194 7.30948H65.3463C65.4596 7.30948 65.5445 7.2779 65.6009 7.21472C65.6578 7.15203 65.6863 7.04522 65.6863 6.89427V6.37273C65.6863 6.22179 65.6578 6.11497 65.6009 6.05228C65.5445 5.98911 65.4596 5.95752 65.3463 5.95752H65.0194V7.30948ZM66.7547 9.72912V5.32892H67.779C68.1353 5.32892 68.3953 5.41187 68.5588 5.57776C68.7222 5.74317 68.804 5.99755 68.804 6.3409V6.61144C68.804 7.06812 68.653 7.35723 68.3512 7.47875V7.49177C68.519 7.54192 68.6374 7.6444 68.7063 7.7992C68.7753 7.95448 68.8098 8.16208 68.8098 8.42201V9.19528C68.8098 9.32067 68.8141 9.42218 68.8228 9.49982C68.831 9.57746 68.852 9.65389 68.8857 9.72912H68.1812C68.1561 9.65775 68.1395 9.59072 68.1313 9.52803C68.1231 9.46534 68.119 9.35225 68.119 9.18877V8.3844C68.119 8.18282 68.0864 8.04225 68.0213 7.96268C67.9562 7.88311 67.8441 7.84332 67.6849 7.84332H67.4462V9.72912H66.7547ZM67.4462 7.21472H67.6972C67.8356 7.21472 67.9393 7.17928 68.0083 7.10839C68.0777 7.03702 68.1124 6.91742 68.1124 6.7496V6.41035C68.1124 6.25121 68.0842 6.13595 68.0278 6.06458C67.9709 5.99321 67.8817 5.95752 67.7602 5.95752H67.4462V7.21472ZM69.2872 9.72912V5.32892H71.173V5.95752H69.9787V7.12069H70.9278V7.74929H69.9787V9.10052H71.173V9.72912H69.2872ZM71.5694 9.72912V5.32892H72.6255C72.9693 5.32892 73.2271 5.42127 73.3988 5.60597C73.5704 5.79019 73.6563 6.06048 73.6563 6.41686V8.64191C73.6563 8.99781 73.5704 9.2681 73.3988 9.4528C73.2271 9.63702 72.9693 9.72912 72.6255 9.72912H71.5694ZM72.2609 9.10052H72.6132C72.726 9.10052 72.8128 9.06701 72.8736 8.99998C72.9344 8.93294 72.9647 8.82396 72.9647 8.67302V6.38503C72.9647 6.23409 72.9344 6.1251 72.8736 6.05807C72.8128 5.99104 72.726 5.95752 72.6132 5.95752H72.2609V9.10052ZM74.1214 9.72912V5.32892H74.8129V9.72912H74.1214ZM76.3023 9.79205C75.971 9.79205 75.7183 9.69778 75.5442 9.50922C75.3706 9.32067 75.2838 9.05447 75.2838 8.71063V6.34741C75.2838 6.00406 75.3706 5.73786 75.5442 5.54883C75.7183 5.36027 75.971 5.26599 76.3023 5.26599C76.6331 5.26599 76.8856 5.36027 77.0597 5.54883C77.2333 5.73786 77.3201 6.00406 77.3201 6.34741V6.81254H76.6669V6.30329C76.6669 6.03082 76.5516 5.89459 76.3211 5.89459C76.0906 5.89459 75.9754 6.03082 75.9754 6.30329V8.76127C75.9754 9.02939 76.0906 9.16346 76.3211 9.16346C76.5516 9.16346 76.6669 9.02939 76.6669 8.76127V8.08854H77.3201V8.71063C77.3201 9.05447 77.2333 9.32067 77.0597 9.50922C76.8856 9.69778 76.6331 9.79205 76.3023 9.79205ZM78.2764 9.72912V5.95752H77.5537V5.32892H79.6905V5.95752H78.9679V9.72912H78.2764ZM80.024 9.72912V5.32892H80.7155V9.72912H80.024ZM82.2303 9.79205C81.8908 9.79205 81.6308 9.69561 81.4505 9.50271C81.2706 9.3103 81.1807 9.03807 81.1807 8.68604V6.37273C81.1807 6.0207 81.2706 5.74823 81.4505 5.55534C81.6308 5.36244 81.8908 5.26599 82.2303 5.26599C82.5698 5.26599 82.8297 5.36244 83.01 5.55534C83.1899 5.74823 83.2799 6.0207 83.2799 6.37273V8.68604C83.2799 9.03807 83.1899 9.3103 83.01 9.50271C82.8297 9.69561 82.5698 9.79205 82.2303 9.79205ZM82.2303 9.16346C82.469 9.16346 82.5883 9.01878 82.5883 8.72944V6.32861C82.5883 6.03926 82.469 5.89459 82.2303 5.89459C81.9915 5.89459 81.8722 6.03926 81.8722 6.32861V8.72944C81.8722 9.01878 81.9915 9.16346 82.2303 9.16346ZM83.745 9.72912V5.32892H84.6123L85.285 7.96268H85.298V5.32892H85.9136V9.72912H85.2033L84.3736 6.5174H84.3613V9.72912H83.745ZM87.2525 9.72912L87.9694 5.32892H88.9061L89.6223 9.72912H88.9307L88.8049 8.8553V8.86832H88.0193L87.8934 9.72912H87.2525ZM88.101 8.27083H88.7231L88.4157 6.09569H88.4027L88.101 8.27083ZM89.955 9.72912V5.32892H90.9728C91.3166 5.32892 91.5744 5.42127 91.7461 5.60597C91.9182 5.79019 92.0043 6.06048 92.0043 6.41686V6.85015C92.0043 7.20653 91.9182 7.47682 91.7461 7.66104C91.5744 7.84573 91.3166 7.93808 90.9728 7.93808H90.6466V9.72912H89.955ZM90.6466 7.30948H90.9728C91.0861 7.30948 91.171 7.2779 91.2274 7.21472C91.2843 7.15203 91.3128 7.04522 91.3128 6.89427V6.37273C91.3128 6.22179 91.2843 6.11497 91.2274 6.05228C91.171 5.98911 91.0861 5.95752 90.9728 5.95752H90.6466V7.30948ZM92.3819 9.72912V5.32892H93.4004C93.7437 5.32892 94.0015 5.42127 94.1737 5.60597C94.3453 5.79019 94.4312 6.06048 94.4312 6.41686V6.85015C94.4312 7.20653 94.3453 7.47682 94.1737 7.66104C94.0015 7.84573 93.7437 7.93808 93.4004 7.93808H93.0734V9.72912H92.3819ZM93.0734 7.30948H93.4004C93.5132 7.30948 93.5981 7.2779 93.655 7.21472C93.7114 7.15203 93.7396 7.04522 93.7396 6.89427V6.37273C93.7396 6.22179 93.7114 6.11497 93.655 6.05228C93.5981 5.98911 93.5132 5.95752 93.4004 5.95752H93.0734V7.30948Z" fill="#1E1E1E"/>
<path d="M55.2617 1.74329H72.5117Z" fill="black"/>
<path d="M55.2617 1.74329H72.5117" stroke="white" stroke-width="0.5"/>
<path d="M77.1619 1.7251H94.4119Z" fill="black"/>
<path d="M77.1619 1.7251H94.4119" stroke="white" stroke-width="0.5"/>
<path d="M76.6135 2.92914L75.5511 1.87187C75.5329 1.85437 75.5086 1.84459 75.4834 1.84459C75.4581 1.84459 75.4339 1.85437 75.4157 1.87187L75.3896 1.89791L75.2907 1.79896C75.439 1.58781 75.5083 1.33119 75.4864 1.07408C75.4645 0.816965 75.3528 0.575763 75.1709 0.392746C74.7437 -0.0343983 74.0511 -0.0343983 73.624 0.392746C73.197 0.81989 73.1969 1.51251 73.624 1.93958C73.8376 2.15311 74.1136 2.25728 74.3949 2.25728C74.6136 2.25728 74.8375 2.18957 75.025 2.05416L75.124 2.15311L75.1084 2.17916C75.0909 2.19735 75.0811 2.22161 75.0811 2.24686C75.0811 2.27211 75.0909 2.29637 75.1084 2.31457L76.1656 3.37704C76.1761 3.38746 76.1969 3.40308 76.2333 3.40308C76.2438 3.40308 76.2594 3.40308 76.2698 3.39787C76.3948 3.36662 76.5979 3.1583 76.6344 3.0333C76.65 2.97601 76.6292 2.94476 76.6135 2.92914ZM73.8428 1.72083C73.5355 1.41355 73.5355 0.913565 73.8428 0.606282C74.1501 0.298998 74.6501 0.298998 74.9573 0.606282C75.2646 0.913565 75.2646 1.41355 74.9573 1.72083C74.8063 1.87708 74.6032 1.94999 74.4001 1.94999C74.1969 1.94999 73.9938 1.87187 73.8428 1.72083Z" fill="white"/>
</svg>
