<svg width="300" height="24" viewBox="0 0 300 24" fill="none" xmlns="http://www.w3.org/2000/svg">
<path d="M113.885 19.5841C113.223 19.5841 112.718 19.3956 112.37 19.0184C112.022 18.6413 111.848 18.1089 111.848 17.4213V12.6948C111.848 12.0081 112.022 11.4757 112.37 11.0977C112.718 10.7205 113.223 10.532 113.885 10.532C114.547 10.532 115.052 10.7205 115.399 11.0977C115.748 11.4757 115.922 12.0081 115.922 12.6948V13.6251H114.614V12.6066C114.614 12.0616 114.383 11.7892 113.922 11.7892C113.461 11.7892 113.231 12.0616 113.231 12.6066V17.5225C113.231 18.0588 113.461 18.3269 113.922 18.3269C114.383 18.3269 114.614 18.0588 114.614 17.5225V16.1771H115.922V17.4213C115.922 18.1089 115.748 18.6413 115.399 19.0184C115.052 19.3956 114.547 19.5841 113.885 19.5841ZM116.751 19.4582V10.6578H118.788C119.475 10.6578 119.991 10.8425 120.334 11.2119C120.677 11.5804 120.849 12.121 120.849 12.8337V13.7003C120.849 14.4131 120.677 14.9536 120.334 15.3221C119.991 15.6915 119.475 15.8762 118.788 15.8762H118.134V19.4582H116.751ZM118.134 14.619H118.788C119.014 14.619 119.184 14.5558 119.297 14.4294C119.41 14.3041 119.466 14.0904 119.466 13.7885V12.7455C119.466 12.4436 119.41 12.2299 119.297 12.1046C119.184 11.9782 119.014 11.915 118.788 11.915H118.134V14.619ZM121.24 19.4582L122.672 10.6578H124.546L125.979 19.4582H124.596L124.344 17.7106V17.7366H122.773L122.522 19.4582H121.24ZM122.937 16.5417H124.181L123.565 12.1914H123.54L122.937 16.5417ZM128.657 19.4582V10.6578H130.693C131.38 10.6578 131.896 10.8425 132.239 11.2119C132.583 11.5804 132.754 12.121 132.754 12.8337V13.7003C132.754 14.4131 132.583 14.9536 132.239 15.3221C131.896 15.6915 131.38 15.8762 130.693 15.8762H130.039V19.4582H128.657ZM130.039 14.619H130.693C130.919 14.619 131.089 14.5558 131.202 14.4294C131.316 14.3041 131.373 14.0904 131.373 13.7885V12.7455C131.373 12.4436 131.316 12.2299 131.202 12.1046C131.089 11.9782 130.919 11.915 130.693 11.915H130.039V14.619ZM133.509 19.4582V10.6578H135.558C136.271 10.6578 136.791 10.8237 137.118 11.1555C137.444 11.4863 137.608 11.9951 137.608 12.6818V13.2229C137.608 14.1362 137.306 14.7145 136.702 14.9575V14.9835C137.038 15.0838 137.275 15.2888 137.413 15.5984C137.551 15.909 137.62 16.3242 137.62 16.844V18.3906C137.62 18.6413 137.628 18.8444 137.646 18.9996C137.662 19.1549 137.704 19.3078 137.771 19.4582H136.362C136.312 19.3155 136.279 19.1814 136.263 19.0561C136.246 18.9307 136.238 18.7045 136.238 18.3775V16.7688C136.238 16.3656 136.173 16.0845 136.043 15.9254C135.912 15.7662 135.688 15.6866 135.37 15.6866H134.892V19.4582H133.509ZM134.892 14.4294H135.394C135.671 14.4294 135.879 14.3586 136.017 14.2168C136.155 14.074 136.225 13.8348 136.225 13.4992V12.8207C136.225 12.5024 136.168 12.2719 136.056 12.1292C135.942 11.9864 135.763 11.915 135.52 11.915H134.892V14.4294ZM138.574 19.4582V10.6578H142.346V11.915H139.957V14.2414H141.856V15.4986H139.957V18.201H142.346V19.4582H138.574ZM143.139 19.4582V10.6578H145.251C145.939 10.6578 146.454 10.8425 146.798 11.2119C147.141 11.5804 147.313 12.121 147.313 12.8337V17.2838C147.313 17.9956 147.141 18.5362 146.798 18.9056C146.454 19.274 145.939 19.4582 145.251 19.4582H143.139ZM144.522 18.201H145.226C145.452 18.201 145.626 18.134 145.747 18C145.869 17.8659 145.929 17.6479 145.929 17.346V12.7701C145.929 12.4682 145.869 12.2502 145.747 12.1161C145.626 11.9821 145.452 11.915 145.226 11.915H144.522V18.201ZM148.243 19.4582V10.6578H149.626V19.4582H148.243ZM152.605 19.5841C151.942 19.5841 151.437 19.3956 151.088 19.0184C150.741 18.6413 150.568 18.1089 150.568 17.4213V12.6948C150.568 12.0081 150.741 11.4757 151.088 11.0977C151.437 10.7205 151.942 10.532 152.605 10.532C153.266 10.532 153.771 10.7205 154.119 11.0977C154.467 11.4757 154.64 12.0081 154.64 12.6948V13.6251H153.334V12.6066C153.334 12.0616 153.103 11.7892 152.642 11.7892C152.181 11.7892 151.951 12.0616 151.951 12.6066V17.5225C151.951 18.0588 152.181 18.3269 152.642 18.3269C153.103 18.3269 153.334 18.0588 153.334 17.5225V16.1771H154.64V17.4213C154.64 18.1089 154.467 18.6413 154.119 19.0184C153.771 19.3956 153.266 19.5841 152.605 19.5841ZM156.553 19.4582V11.915H155.107V10.6578H159.381V11.915H157.936V19.4582H156.553ZM160.048 19.4582V10.6578H161.431V19.4582H160.048ZM164.461 19.5841C163.782 19.5841 163.262 19.3912 162.901 19.0054C162.541 18.6206 162.361 18.0761 162.361 17.3721V12.7455C162.361 12.0414 162.541 11.4965 162.901 11.1107C163.262 10.7249 163.782 10.532 164.461 10.532C165.14 10.532 165.659 10.7249 166.02 11.1107C166.38 11.4965 166.56 12.0414 166.56 12.7455V17.3721C166.56 18.0761 166.38 18.6206 166.02 19.0054C165.659 19.3912 165.14 19.5841 164.461 19.5841ZM164.461 18.3269C164.938 18.3269 165.177 18.0376 165.177 17.4589V12.6572C165.177 12.0785 164.938 11.7892 164.461 11.7892C163.983 11.7892 163.744 12.0785 163.744 12.6572V17.4589C163.744 18.0376 163.983 18.3269 164.461 18.3269ZM167.49 19.4582V10.6578H169.225L170.57 15.9254H170.596V10.6578H171.827V19.4582H170.407L168.747 13.0348H168.723V19.4582H167.49ZM174.505 19.4582L175.939 10.6578H177.812L179.245 19.4582H177.861L177.61 17.7106V17.7366H176.039L175.787 19.4582H174.505ZM176.202 16.5417H177.446L176.831 12.1914H176.805L176.202 16.5417ZM179.91 19.4582V10.6578H181.946C182.633 10.6578 183.149 10.8425 183.492 11.2119C183.836 11.5804 184.009 12.121 184.009 12.8337V13.7003C184.009 14.4131 183.836 14.9536 183.492 15.3221C183.149 15.6915 182.633 15.8762 181.946 15.8762H181.293V19.4582H179.91ZM181.293 14.619H181.946C182.172 14.619 182.342 14.5558 182.455 14.4294C182.569 14.3041 182.626 14.0904 182.626 13.7885V12.7455C182.626 12.4436 182.569 12.2299 182.455 12.1046C182.342 11.9782 182.172 11.915 181.946 11.915H181.293V14.619ZM184.764 19.4582V10.6578H186.801C187.487 10.6578 188.003 10.8425 188.347 11.2119C188.691 11.5804 188.862 12.121 188.862 12.8337V13.7003C188.862 14.4131 188.691 14.9536 188.347 15.3221C188.003 15.6915 187.487 15.8762 186.801 15.8762H186.147V19.4582H184.764ZM186.147 14.619H186.801C187.026 14.619 187.196 14.5558 187.31 14.4294C187.423 14.3041 187.479 14.0904 187.479 13.7885V12.7455C187.479 12.4436 187.423 12.2299 187.31 12.1046C187.196 11.9782 187.026 11.915 186.801 11.915H186.147V14.619Z" fill="#1E1E1E"/>
<path d="M110.524 3.48633H145.024Z" fill="black"/>
<path d="M110.524 3.48633H145.024" stroke="white" stroke-width="0.5"/>
<path d="M154.324 3.44995H188.824Z" fill="black"/>
<path d="M154.324 3.44995H188.824" stroke="white" stroke-width="0.5"/>
<path d="M153.227 5.85815L151.102 3.74362C151.066 3.70861 151.017 3.68906 150.967 3.68906C150.916 3.68906 150.868 3.70861 150.832 3.74362L150.779 3.7957L150.582 3.59779C150.878 3.17549 151.017 2.66226 150.973 2.14803C150.929 1.63381 150.706 1.1514 150.342 0.785369C149.488 -0.0689187 148.102 -0.0689187 147.248 0.785369C146.394 1.63966 146.394 3.02489 147.248 3.87904C147.675 4.30611 148.227 4.51443 148.79 4.51443C149.227 4.51443 149.675 4.37902 150.05 4.1082L150.248 4.30611L150.217 4.35819C150.182 4.39458 150.162 4.44311 150.162 4.4936C150.162 4.5441 150.182 4.59263 150.217 4.62901L152.332 6.75396C152.352 6.77479 152.394 6.80604 152.467 6.80604C152.488 6.80604 152.519 6.80604 152.54 6.79562C152.79 6.73312 153.196 6.31647 153.269 6.06648C153.3 5.9519 153.259 5.8894 153.227 5.85815ZM147.686 3.44155C147.071 2.82698 147.071 1.82701 147.686 1.21244C148.3 0.597875 149.3 0.597875 149.915 1.21244C150.529 1.82701 150.529 2.82698 149.915 3.44155C149.613 3.75404 149.207 3.89987 148.8 3.89987C148.394 3.89987 147.988 3.74362 147.686 3.44155Z" fill="white"/>
</svg>
