<svg width="150" height="42" viewBox="0 0 150 42" fill="none" xmlns="http://www.w3.org/2000/svg">
<path d="M10.852 34.7852C9.67677 34.7852 8.77996 34.4503 8.16153 33.7804C7.5431 33.1106 7.23389 32.165 7.23389 30.9435V22.5484C7.23389 21.3287 7.5431 20.3831 8.16153 19.7115C8.77996 19.0417 9.67677 18.7068 10.852 18.7068C12.0289 18.7068 12.9257 19.0417 13.5424 19.7115C14.1608 20.3831 14.47 21.3287 14.47 22.5484V24.2007H12.1471V22.3917C12.1471 21.4238 11.7376 20.9398 10.9188 20.9398C10.0999 20.9398 9.69048 21.4238 9.69048 22.3917V31.1234C9.69048 32.0759 10.0999 32.5521 10.9188 32.5521C11.7376 32.5521 12.1471 32.0759 12.1471 31.1234V28.7336H14.47V30.9435C14.47 32.165 14.1608 33.1106 13.5424 33.7804C12.9257 34.4503 12.0289 34.7852 10.852 34.7852ZM15.9425 34.5616V18.9303H19.5606C20.782 18.9303 21.6977 19.2584 22.3075 19.9145C22.9174 20.5689 23.2223 21.5291 23.2223 22.7951V24.3343C23.2223 25.6003 22.9174 26.5605 22.3075 27.2149C21.6977 27.8711 20.782 28.1991 19.5606 28.1991H18.3991V34.5616H15.9425ZM18.3991 25.9661H19.5606C19.9631 25.9661 20.2646 25.8539 20.4651 25.6295C20.6655 25.4068 20.7657 25.0273 20.7657 24.4911V22.6384C20.7657 22.1022 20.6655 21.7227 20.4651 21.5C20.2646 21.2756 19.9631 21.1634 19.5606 21.1634H18.3991V25.9661ZM23.9161 34.5616L26.4601 18.9303H29.7878L32.3343 34.5616H29.8778L29.4306 31.4575V31.5037H26.64L26.1929 34.5616H23.9161ZM26.9303 29.3812H29.1403L28.0456 21.6542H28.0019L26.9303 29.3812ZM37.0908 34.5616V18.9303H40.7063C41.9278 18.9303 42.8434 19.2584 43.4533 19.9145C44.0631 20.5689 44.3681 21.5291 44.3681 22.7951V24.3343C44.3681 25.6003 44.0631 26.5605 43.4533 27.2149C42.8434 27.8711 41.9278 28.1991 40.7063 28.1991H39.5448V34.5616H37.0908ZM39.5448 25.9661H40.7063C41.1089 25.9661 41.4104 25.8539 41.6108 25.6295C41.813 25.4068 41.914 25.0273 41.914 24.4911V22.6384C41.914 22.1022 41.813 21.7227 41.6108 21.5C41.4104 21.2756 41.1089 21.1634 40.7063 21.1634H39.5448V25.9661ZM45.7094 34.5616V18.9303H49.3481C50.6141 18.9303 51.5374 19.225 52.1182 19.8143C52.6989 20.4019 52.9893 21.3056 52.9893 22.5253V23.4864C52.9893 25.1087 52.4531 26.1357 51.3807 26.5674V26.6136C51.9768 26.7918 52.3974 27.1558 52.6424 27.7057C52.8874 28.2574 53.0098 28.9949 53.0098 29.9182V32.6652C53.0098 33.1106 53.0253 33.4712 53.0561 33.747C53.0852 34.0228 53.1598 34.2944 53.2797 34.5616H50.7768C50.6877 34.3081 50.6286 34.0699 50.5995 33.8472C50.5704 33.6245 50.5558 33.2228 50.5558 32.6421V29.7846C50.5558 29.0685 50.4402 28.5692 50.2089 28.2865C49.9777 28.0038 49.5793 27.8625 49.014 27.8625H48.166V34.5616H45.7094ZM48.166 25.6295H49.0577C49.5494 25.6295 49.9177 25.5035 50.1627 25.2517C50.4094 24.9982 50.5327 24.5733 50.5327 23.9772V22.772C50.5327 22.2067 50.4325 21.7972 50.232 21.5437C50.0299 21.2902 49.713 21.1634 49.2813 21.1634H48.166V25.6295ZM54.7058 34.5616V18.9303H61.4049V21.1634H57.1624V25.2954H60.5338V27.5284H57.1624V32.3286H61.4049V34.5616H54.7058ZM62.8131 34.5616V18.9303H66.5648C67.7863 18.9303 68.7019 19.2584 69.3118 19.9145C69.9216 20.5689 70.2266 21.5291 70.2266 22.7951V30.6994C70.2266 31.9637 69.9216 32.9239 69.3118 33.58C68.7019 34.2344 67.7863 34.5616 66.5648 34.5616H62.8131ZM65.2697 32.3286H66.5211C66.922 32.3286 67.2304 32.2095 67.4462 31.9714C67.6621 31.7333 67.77 31.3461 67.77 30.8099V22.6821C67.77 22.1459 67.6621 21.7587 67.4462 21.5206C67.2304 21.2824 66.922 21.1634 66.5211 21.1634H65.2697V32.3286ZM71.8789 34.5616V18.9303H74.3355V34.5616H71.8789ZM79.6264 34.7852C78.4495 34.7852 77.5518 34.4503 76.9334 33.7804C76.3167 33.1106 76.0083 32.165 76.0083 30.9435V22.5484C76.0083 21.3287 76.3167 20.3831 76.9334 19.7115C77.5518 19.0417 78.4495 18.7068 79.6264 18.7068C80.8016 18.7068 81.6984 19.0417 82.3168 19.7115C82.9336 20.3831 83.242 21.3287 83.242 22.5484V24.2007H80.9215V22.3917C80.9215 21.4238 80.5121 20.9398 79.6932 20.9398C78.8744 20.9398 78.4649 21.4238 78.4649 22.3917V31.1234C78.4649 32.0759 78.8744 32.5521 79.6932 32.5521C80.5121 32.5521 80.9215 32.0759 80.9215 31.1234V28.7336H83.242V30.9435C83.242 32.165 82.9336 33.1106 82.3168 33.7804C81.6984 34.4503 80.8016 34.7852 79.6264 34.7852ZM86.639 34.5616V21.1634H84.0719V18.9303H91.6627V21.1634H89.0956V34.5616H86.639ZM92.8473 34.5616V18.9303H95.3039V34.5616H92.8473ZM100.685 34.7852C99.4788 34.7852 98.5554 34.4425 97.9147 33.7573C97.2757 33.0738 96.9562 32.1067 96.9562 30.8562V22.6384C96.9562 21.3878 97.2757 20.4199 97.9147 19.7347C98.5554 19.0494 99.4788 18.7068 100.685 18.7068C101.891 18.7068 102.814 19.0494 103.455 19.7347C104.094 20.4199 104.413 21.3878 104.413 22.6384V30.8562C104.413 32.1067 104.094 33.0738 103.455 33.7573C102.814 34.4425 101.891 34.7852 100.685 34.7852ZM100.685 32.5521C101.533 32.5521 101.957 32.0382 101.957 31.0103V22.4816C101.957 21.4538 101.533 20.9398 100.685 20.9398C99.8368 20.9398 99.4128 21.4538 99.4128 22.4816V31.0103C99.4128 32.0382 99.8368 32.5521 100.685 32.5521ZM106.066 34.5616V18.9303H109.147L111.536 28.2865H111.583V18.9303H113.77V34.5616H111.246L108.299 23.1523H108.255V34.5616H106.066ZM118.526 34.5616L121.073 18.9303H124.4L126.944 34.5616H124.488L124.04 31.4575V31.5037H121.25L120.803 34.5616H118.526ZM121.54 29.3812H123.75L122.658 21.6542H122.612L121.54 29.3812ZM128.126 34.5616V18.9303H131.742C132.963 18.9303 133.879 19.2584 134.489 19.9145C135.1 20.5689 135.406 21.5291 135.406 22.7951V24.3343C135.406 25.6003 135.1 26.5605 134.489 27.2149C133.879 27.8711 132.963 28.1991 131.742 28.1991H130.583V34.5616H128.126ZM130.583 25.9661H131.742C132.144 25.9661 132.446 25.8539 132.646 25.6295C132.848 25.4068 132.949 25.0273 132.949 24.4911V22.6384C132.949 22.1022 132.848 21.7227 132.646 21.5C132.446 21.2756 132.144 21.1634 131.742 21.1634H130.583V25.9661ZM136.747 34.5616V18.9303H140.366C141.585 18.9303 142.501 19.2584 143.113 19.9145C143.722 20.5689 144.027 21.5291 144.027 22.7951V24.3343C144.027 25.6003 143.722 26.5605 143.113 27.2149C142.501 27.8711 141.585 28.1991 140.366 28.1991H139.204V34.5616H136.747ZM139.204 25.9661H140.366C140.766 25.9661 141.068 25.8539 141.27 25.6295C141.47 25.4068 141.571 25.0273 141.571 24.4911V22.6384C141.571 22.1022 141.47 21.7227 141.27 21.5C141.068 21.2756 140.766 21.1634 140.366 21.1634H139.204V25.9661Z" fill="#1E1E1E"/>
<path d="M4.88232 6.19238H64.8823H4.88232Z" fill="black"/>
<path d="M4.88232 6.19238H64.8823" stroke="#C73F42" stroke-width="3" stroke-linecap="round"/>
<path d="M82.6802 6.12793H143.959H82.6802Z" fill="black"/>
<path d="M82.6802 6.12793H143.959" stroke="#C73F42" stroke-width="3" stroke-linecap="round"/>
<path d="M76.4907 6.84801L76.582 6.75668C76.6186 6.72193 76.6671 6.70252 76.7176 6.70252C76.7682 6.70252 76.8167 6.72196 76.8534 6.7568L80.6264 10.5113C80.6264 10.5113 80.6264 10.5114 80.6264 10.5114C80.6421 10.5271 80.6583 10.5483 80.6677 10.5789C80.6769 10.6086 80.6829 10.6576 80.6621 10.7346C80.6075 10.9199 80.4167 11.1935 80.1703 11.4422C80.0495 11.5641 79.9205 11.6747 79.7972 11.7605C79.6719 11.8477 79.5608 11.9034 79.475 11.9249L79.459 11.9289L79.4468 11.935C79.4466 11.935 79.4464 11.9351 79.4461 11.9351C79.4433 11.9358 79.4386 11.9366 79.4317 11.9373C79.4171 11.9388 79.4012 11.9389 79.3818 11.9389C79.3018 11.9389 79.264 11.9069 79.2475 11.8904C79.2474 11.8904 79.2474 11.8904 79.2474 11.8903L75.4928 8.1173C75.458 8.08072 75.4386 8.03213 75.4386 7.98156C75.4386 7.93062 75.4583 7.8817 75.4936 7.84504L75.5054 7.83279L75.5141 7.81823L75.5696 7.72572L75.6299 7.62529L75.5471 7.54246L75.1955 7.19093L75.1052 7.1006L75.0016 7.1754C74.3621 7.63728 73.5975 7.86856 72.8508 7.86856C71.8894 7.86856 70.9476 7.51288 70.2186 6.7839L70.2186 6.78389C68.7598 5.32536 68.76 2.95988 70.2186 1.50105C71.6771 0.0423317 74.0424 0.0422509 75.5012 1.50086C76.1226 2.12601 76.5041 2.94988 76.5789 3.82809C76.6537 4.70636 76.417 5.58293 75.9103 6.3042L75.8378 6.40735L75.927 6.49649L76.2785 6.84802L76.3846 6.95408L76.4907 6.84801ZM70.7835 2.0475C69.6334 3.19767 69.6334 5.06879 70.7835 6.21896C71.3495 6.78495 72.1098 7.07697 72.8693 7.07697C73.626 7.07697 74.3878 6.80522 74.9559 6.21808C76.1052 5.06784 76.1049 3.19737 74.955 2.0475C73.8048 0.897325 71.9337 0.897325 70.7835 2.0475Z" fill="#C73F42" stroke="#C73F42" stroke-width="0.3"/>
</svg>
