<svg width="300" height="83" viewBox="0 0 300 83" fill="none" xmlns="http://www.w3.org/2000/svg">
<path d="M21.7037 69.5705C19.3533 69.5705 17.5597 68.9006 16.3228 67.561C15.086 66.2213 14.4675 64.3301 14.4675 61.8872V45.097C14.4675 42.6575 15.086 40.7663 16.3228 39.4232C17.5597 38.0835 19.3533 37.4137 21.7037 37.4137C24.0575 37.4137 25.8511 38.0835 27.0846 39.4232C28.3214 40.7663 28.9399 42.6575 28.9399 45.097V48.4016H24.2939V44.7835C24.2939 42.8477 23.475 41.8798 21.8373 41.8798C20.1996 41.8798 19.3807 42.8477 19.3807 44.7835V62.2469C19.3807 64.1519 20.1996 65.1044 21.8373 65.1044C23.475 65.1044 24.2939 64.1519 24.2939 62.2469V57.4673H28.9399V61.8872C28.9399 64.3301 28.3214 66.2213 27.0846 67.561C25.8511 68.9006 24.0575 69.5705 21.7037 69.5705ZM31.8847 69.1233V37.8608H39.1209C41.5638 37.8608 43.3951 38.5169 44.6148 39.8292C45.8345 41.138 46.4444 43.0584 46.4444 45.5904V48.6688C46.4444 51.2008 45.8345 53.1212 44.6148 54.43C43.3951 55.7422 41.5638 56.3984 39.1209 56.3984H36.7979V69.1233H31.8847ZM36.7979 51.9323H39.1209C39.926 51.9323 40.529 51.7079 40.9299 51.259C41.3308 50.8136 41.5312 50.0547 41.5312 48.9823V45.2769C41.5312 44.2045 41.3308 43.4456 40.9299 43.0001C40.529 42.5513 39.926 42.3269 39.1209 42.3269H36.7979V51.9323ZM47.832 69.1233L52.92 37.8608H59.5754L64.6685 69.1233H59.7553L58.861 62.915V63.0075H53.2797L52.3855 69.1233H47.832ZM53.8604 58.7625H58.2803L56.0909 43.3085H56.0036L53.8604 58.7625ZM74.1814 69.1233V37.8608H81.4124C83.8553 37.8608 85.6866 38.5169 86.9063 39.8292C88.126 41.138 88.7359 43.0584 88.7359 45.5904V48.6688C88.7359 51.2008 88.126 53.1212 86.9063 54.43C85.6866 55.7422 83.8553 56.3984 81.4124 56.3984H79.0894V69.1233H74.1814ZM79.0894 51.9323H81.4124C82.2175 51.9323 82.8205 51.7079 83.2214 51.259C83.6257 50.8136 83.8278 50.0547 83.8278 48.9823V45.2769C83.8278 44.2045 83.6257 43.4456 83.2214 43.0001C82.8205 42.5513 82.2175 42.3269 81.4124 42.3269H79.0894V51.9323ZM91.4186 69.1233V37.8608H98.6959C101.228 37.8608 103.075 38.4501 104.236 39.6287C105.398 40.8039 105.978 42.6113 105.978 45.0507V46.9728C105.978 50.2175 104.906 52.2715 102.761 53.1349V53.2274C103.953 53.5837 104.795 54.3118 105.285 55.4116C105.774 56.5149 106.019 57.9898 106.019 59.8366V65.3305C106.019 66.2213 106.05 66.9426 106.112 67.4942C106.17 68.0458 106.319 68.5888 106.559 69.1233H101.553C101.375 68.6163 101.257 68.14 101.199 67.6946C101.141 67.2492 101.111 66.4457 101.111 65.2843V59.5693C101.111 58.1372 100.88 57.1384 100.418 56.5731C99.9551 56.0078 99.1585 55.7251 98.0278 55.7251H96.3318V69.1233H91.4186ZM96.3318 51.259H98.1152C99.0985 51.259 99.8351 51.0072 100.325 50.5036C100.818 49.9965 101.065 49.1468 101.065 47.9545V45.5441C101.065 44.4135 100.865 43.5946 100.464 43.0875C100.06 42.5804 99.4257 42.3269 98.5623 42.3269H96.3318V51.259ZM109.411 69.1233V37.8608H122.81V42.3269H114.325V50.5909H121.067V55.057H114.325V64.6573H122.81V69.1233H109.411ZM125.626 69.1233V37.8608H133.129C135.572 37.8608 137.404 38.5169 138.623 39.8292C139.843 41.138 140.453 43.0584 140.453 45.5904V61.3989C140.453 63.9275 139.843 65.8479 138.623 67.1601C137.404 68.4689 135.572 69.1233 133.129 69.1233H125.626ZM130.539 64.6573H133.042C133.844 64.6573 134.46 64.4191 134.892 63.9429C135.324 63.4667 135.54 62.6923 135.54 61.6199V45.3642C135.54 44.2918 135.324 43.5175 134.892 43.0413C134.46 42.565 133.844 42.3269 133.042 42.3269H130.539V64.6573ZM143.758 69.1233V37.8608H148.671V69.1233H143.758ZM159.253 69.5705C156.899 69.5705 155.103 68.9006 153.867 67.561C152.633 66.2213 152.016 64.3301 152.016 61.8872V45.097C152.016 42.6575 152.633 40.7663 153.867 39.4232C155.103 38.0835 156.899 37.4137 159.253 37.4137C161.603 37.4137 163.397 38.0835 164.633 39.4232C165.867 40.7663 166.484 42.6575 166.484 45.097V48.4016H161.843V44.7835C161.843 42.8477 161.024 41.8798 159.386 41.8798C157.748 41.8798 156.93 42.8477 156.93 44.7835V62.2469C156.93 64.1519 157.748 65.1044 159.386 65.1044C161.024 65.1044 161.843 64.1519 161.843 62.2469V57.4673H166.484V61.8872C166.484 64.3301 165.867 66.2213 164.633 67.561C163.397 68.9006 161.603 69.5705 159.253 69.5705ZM173.278 69.1233V42.3269H168.144V37.8608H183.325V42.3269H178.191V69.1233H173.278ZM185.694 69.1233V37.8608H190.608V69.1233H185.694ZM201.369 69.5705C198.957 69.5705 197.111 68.8852 195.829 67.5147C194.551 66.1477 193.912 64.2136 193.912 61.7124V45.2769C193.912 42.7757 194.551 40.8399 195.829 39.4694C197.111 38.0989 198.957 37.4137 201.369 37.4137C203.781 37.4137 205.628 38.0989 206.91 39.4694C208.188 40.8399 208.826 42.7757 208.826 45.2769V61.7124C208.826 64.2136 208.188 66.1477 206.91 67.5147C205.628 68.8852 203.781 69.5705 201.369 69.5705ZM201.369 65.1044C203.065 65.1044 203.913 64.0765 203.913 62.0208V44.9634C203.913 42.9076 203.065 41.8798 201.369 41.8798C199.673 41.8798 198.825 42.9076 198.825 44.9634V62.0208C198.825 64.0765 199.673 65.1044 201.369 65.1044ZM212.131 69.1233V37.8608H218.293L223.073 56.5731H223.165V37.8608H227.539V69.1233H222.492L216.597 46.3047H216.51V69.1233H212.131ZM237.052 69.1233L242.145 37.8608H248.8L253.888 69.1233H248.975L248.081 62.915V63.0075H242.499L241.605 69.1233H237.052ZM243.08 58.7625H247.5L245.316 43.3085H245.223L243.08 58.7625ZM256.252 69.1233V37.8608H263.483C265.926 37.8608 267.757 38.5169 268.977 39.8292C270.2 41.138 270.812 43.0584 270.812 45.5904V48.6688C270.812 51.2008 270.2 53.1212 268.977 54.43C267.757 55.7422 265.926 56.3984 263.483 56.3984H261.165V69.1233H256.252ZM261.165 51.9323H263.483C264.288 51.9323 264.891 51.7079 265.292 51.259C265.697 50.8136 265.899 50.0547 265.899 48.9823V45.2769C265.899 44.2045 265.697 43.4456 265.292 43.0001C264.891 42.5513 264.288 42.3269 263.483 42.3269H261.165V51.9323ZM273.495 69.1233V37.8608H280.731C283.17 37.8608 285.002 38.5169 286.225 39.8292C287.445 41.138 288.054 43.0584 288.054 45.5904V48.6688C288.054 51.2008 287.445 53.1212 286.225 54.43C285.002 55.7422 283.17 56.3984 280.731 56.3984H278.408V69.1233H273.495ZM278.408 51.9323H280.731C281.533 51.9323 282.136 51.7079 282.54 51.259C282.941 50.8136 283.141 50.0547 283.141 48.9823V45.2769C283.141 44.2045 282.941 43.4456 282.54 43.0001C282.136 42.5513 281.533 42.3269 280.731 42.3269H278.408V51.9323Z" fill="#1E1E1E"/>
<path d="M9.76489 12.3848H132.323Z" fill="black"/>
<path d="M9.76489 12.3848H132.323" stroke="white" stroke-width="0.5"/>
<path d="M165.36 12.2557H287.918Z" fill="black"/>
<path d="M165.36 12.2557H287.918" stroke="white" stroke-width="0.5"/>
<path d="M161.465 20.8105L153.916 13.2989C153.787 13.1745 153.614 13.105 153.435 13.105C153.256 13.105 153.083 13.1745 152.954 13.2989L152.769 13.4839L152.066 12.7808C153.12 11.2807 153.612 9.45745 153.456 7.63072C153.301 5.80399 152.507 4.0903 151.215 2.78999C148.18 -0.244777 143.259 -0.244777 140.225 2.78999C137.191 5.82477 137.19 10.7457 140.225 13.7799C141.742 15.2971 143.703 16.0371 145.701 16.0371C147.255 16.0371 148.847 15.5561 150.179 14.594L150.882 15.2971L150.771 15.4821C150.646 15.6113 150.577 15.7837 150.577 15.9631C150.577 16.1425 150.646 16.3149 150.771 16.4442L158.282 23.9928C158.356 24.0668 158.504 24.1778 158.763 24.1778C158.837 24.1778 158.948 24.1778 159.022 24.1408C159.911 23.9188 161.354 22.4387 161.613 21.5506C161.724 21.1436 161.576 20.9215 161.465 20.8105ZM141.779 12.2258C139.596 10.0426 139.596 6.49031 141.779 4.30712C143.962 2.12394 147.514 2.12394 149.698 4.30712C151.881 6.49031 151.881 10.0426 149.698 12.2258C148.625 13.3359 147.181 13.8539 145.738 13.8539C144.295 13.8539 142.852 13.2989 141.779 12.2258Z" fill="white"/>
</svg>
